<mxfile host="app.diagrams.net" agent="Mozilla/5.0 (Macintosh; Intel Mac OS X 10_15_7) AppleWebKit/537.36 (KHTML, like Gecko) Chrome/138.0.0.0 Safari/537.36" version="28.2.7">
  <diagram name="페이지-1" id="4dpibiQrphXVGG_1To1Z">
    <mxGraphModel dx="787" dy="1120" grid="1" gridSize="10" guides="1" tooltips="1" connect="1" arrows="1" fold="1" page="1" pageScale="1" pageWidth="827" pageHeight="1169" math="0" shadow="0">
      <root>
        <mxCell id="0" />
        <mxCell id="1" parent="0" />
        <mxCell id="Wu-X3HXLKaEp5Js9x2QL-1" value="고객" style="whiteSpace=wrap;html=1;align=center;" vertex="1" parent="1">
          <mxGeometry x="390" y="250" width="100" height="40" as="geometry" />
        </mxCell>
        <mxCell id="Wu-X3HXLKaEp5Js9x2QL-3" value="고객명" style="ellipse;whiteSpace=wrap;html=1;align=center;" vertex="1" parent="1">
          <mxGeometry x="330" y="160" width="100" height="40" as="geometry" />
        </mxCell>
        <mxCell id="Wu-X3HXLKaEp5Js9x2QL-4" value="" style="endArrow=none;html=1;rounded=0;" edge="1" parent="1" source="Wu-X3HXLKaEp5Js9x2QL-3" target="Wu-X3HXLKaEp5Js9x2QL-1">
          <mxGeometry relative="1" as="geometry">
            <mxPoint x="350" y="300" as="sourcePoint" />
            <mxPoint x="510" y="300" as="targetPoint" />
          </mxGeometry>
        </mxCell>
        <mxCell id="Wu-X3HXLKaEp5Js9x2QL-6" value="전화번호" style="ellipse;whiteSpace=wrap;html=1;align=center;fontStyle=4;" vertex="1" parent="1">
          <mxGeometry x="484" y="160" width="100" height="40" as="geometry" />
        </mxCell>
        <mxCell id="Wu-X3HXLKaEp5Js9x2QL-7" value="" style="endArrow=none;html=1;rounded=0;" edge="1" parent="1" source="Wu-X3HXLKaEp5Js9x2QL-6" target="Wu-X3HXLKaEp5Js9x2QL-1">
          <mxGeometry relative="1" as="geometry">
            <mxPoint x="400" y="220" as="sourcePoint" />
            <mxPoint x="460" y="270" as="targetPoint" />
          </mxGeometry>
        </mxCell>
        <mxCell id="Wu-X3HXLKaEp5Js9x2QL-8" value="이메일" style="ellipse;whiteSpace=wrap;html=1;align=center;fontStyle=4;" vertex="1" parent="1">
          <mxGeometry x="550" y="220" width="100" height="40" as="geometry" />
        </mxCell>
        <mxCell id="Wu-X3HXLKaEp5Js9x2QL-9" value="" style="endArrow=none;html=1;rounded=0;" edge="1" parent="1" source="Wu-X3HXLKaEp5Js9x2QL-8" target="Wu-X3HXLKaEp5Js9x2QL-1">
          <mxGeometry relative="1" as="geometry">
            <mxPoint x="564" y="220" as="sourcePoint" />
            <mxPoint x="470" y="270" as="targetPoint" />
          </mxGeometry>
        </mxCell>
        <mxCell id="Wu-X3HXLKaEp5Js9x2QL-10" value="고객코드" style="ellipse;whiteSpace=wrap;html=1;align=center;fontStyle=4;" vertex="1" parent="1">
          <mxGeometry x="550" y="290" width="100" height="40" as="geometry" />
        </mxCell>
        <mxCell id="Wu-X3HXLKaEp5Js9x2QL-11" value="" style="endArrow=none;html=1;rounded=0;" edge="1" parent="1" source="Wu-X3HXLKaEp5Js9x2QL-10" target="Wu-X3HXLKaEp5Js9x2QL-1">
          <mxGeometry relative="1" as="geometry">
            <mxPoint x="570" y="290" as="sourcePoint" />
            <mxPoint x="510" y="320" as="targetPoint" />
          </mxGeometry>
        </mxCell>
        <mxCell id="Wu-X3HXLKaEp5Js9x2QL-12" value="주소" style="ellipse;whiteSpace=wrap;html=1;align=center;" vertex="1" parent="1">
          <mxGeometry x="250" y="220" width="100" height="40" as="geometry" />
        </mxCell>
        <mxCell id="Wu-X3HXLKaEp5Js9x2QL-13" value="기본주소" style="ellipse;whiteSpace=wrap;html=1;align=center;" vertex="1" parent="1">
          <mxGeometry x="130" y="180" width="100" height="40" as="geometry" />
        </mxCell>
        <mxCell id="Wu-X3HXLKaEp5Js9x2QL-15" value="상세주소" style="ellipse;whiteSpace=wrap;html=1;align=center;fontStyle=0" vertex="1" parent="1">
          <mxGeometry x="130" y="260" width="100" height="40" as="geometry" />
        </mxCell>
        <mxCell id="Wu-X3HXLKaEp5Js9x2QL-17" value="" style="endArrow=none;html=1;rounded=0;" edge="1" parent="1" source="Wu-X3HXLKaEp5Js9x2QL-12" target="Wu-X3HXLKaEp5Js9x2QL-1">
          <mxGeometry relative="1" as="geometry">
            <mxPoint x="420" y="210" as="sourcePoint" />
            <mxPoint x="454" y="261" as="targetPoint" />
          </mxGeometry>
        </mxCell>
        <mxCell id="Wu-X3HXLKaEp5Js9x2QL-18" value="" style="endArrow=none;html=1;rounded=0;" edge="1" parent="1" source="Wu-X3HXLKaEp5Js9x2QL-13" target="Wu-X3HXLKaEp5Js9x2QL-12">
          <mxGeometry relative="1" as="geometry">
            <mxPoint x="360" y="250" as="sourcePoint" />
            <mxPoint x="406" y="260" as="targetPoint" />
          </mxGeometry>
        </mxCell>
        <mxCell id="Wu-X3HXLKaEp5Js9x2QL-19" value="" style="endArrow=none;html=1;rounded=0;" edge="1" parent="1" source="Wu-X3HXLKaEp5Js9x2QL-15" target="Wu-X3HXLKaEp5Js9x2QL-12">
          <mxGeometry relative="1" as="geometry">
            <mxPoint x="320" y="250" as="sourcePoint" />
            <mxPoint x="363" y="264" as="targetPoint" />
          </mxGeometry>
        </mxCell>
        <mxCell id="Wu-X3HXLKaEp5Js9x2QL-20" value="가입일" style="ellipse;whiteSpace=wrap;html=1;align=center;" vertex="1" parent="1">
          <mxGeometry x="250" y="300" width="100" height="40" as="geometry" />
        </mxCell>
        <mxCell id="Wu-X3HXLKaEp5Js9x2QL-21" value="" style="endArrow=none;html=1;rounded=0;" edge="1" parent="1" source="Wu-X3HXLKaEp5Js9x2QL-20" target="Wu-X3HXLKaEp5Js9x2QL-1">
          <mxGeometry relative="1" as="geometry">
            <mxPoint x="370" y="250" as="sourcePoint" />
            <mxPoint x="416" y="260" as="targetPoint" />
          </mxGeometry>
        </mxCell>
        <mxCell id="Wu-X3HXLKaEp5Js9x2QL-22" value="지역" style="ellipse;whiteSpace=wrap;html=1;align=center;" vertex="1" parent="1">
          <mxGeometry x="330" y="360" width="100" height="40" as="geometry" />
        </mxCell>
        <mxCell id="Wu-X3HXLKaEp5Js9x2QL-23" value="" style="endArrow=none;html=1;rounded=0;" edge="1" parent="1" source="Wu-X3HXLKaEp5Js9x2QL-22" target="Wu-X3HXLKaEp5Js9x2QL-1">
          <mxGeometry relative="1" as="geometry">
            <mxPoint x="350" y="319" as="sourcePoint" />
            <mxPoint x="403" y="300" as="targetPoint" />
          </mxGeometry>
        </mxCell>
        <mxCell id="Wu-X3HXLKaEp5Js9x2QL-24" value="지역" style="whiteSpace=wrap;html=1;align=center;" vertex="1" parent="1">
          <mxGeometry x="390" y="565" width="100" height="40" as="geometry" />
        </mxCell>
        <mxCell id="Wu-X3HXLKaEp5Js9x2QL-25" value="지역명" style="ellipse;whiteSpace=wrap;html=1;align=center;" vertex="1" parent="1">
          <mxGeometry x="330" y="490" width="100" height="40" as="geometry" />
        </mxCell>
        <mxCell id="Wu-X3HXLKaEp5Js9x2QL-26" value="지역코드" style="ellipse;whiteSpace=wrap;html=1;align=center;fontStyle=4;" vertex="1" parent="1">
          <mxGeometry x="250" y="545" width="100" height="40" as="geometry" />
        </mxCell>
        <mxCell id="Wu-X3HXLKaEp5Js9x2QL-27" value="" style="endArrow=none;html=1;rounded=0;" edge="1" parent="1" source="Wu-X3HXLKaEp5Js9x2QL-24" target="Wu-X3HXLKaEp5Js9x2QL-25">
          <mxGeometry relative="1" as="geometry">
            <mxPoint x="430" y="570" as="sourcePoint" />
            <mxPoint x="468" y="500" as="targetPoint" />
          </mxGeometry>
        </mxCell>
        <mxCell id="Wu-X3HXLKaEp5Js9x2QL-28" value="" style="endArrow=none;html=1;rounded=0;" edge="1" parent="1" source="Wu-X3HXLKaEp5Js9x2QL-24" target="Wu-X3HXLKaEp5Js9x2QL-26">
          <mxGeometry relative="1" as="geometry">
            <mxPoint x="499" y="526" as="sourcePoint" />
            <mxPoint x="470" y="490" as="targetPoint" />
          </mxGeometry>
        </mxCell>
        <mxCell id="Wu-X3HXLKaEp5Js9x2QL-29" value="제품" style="whiteSpace=wrap;html=1;align=center;" vertex="1" parent="1">
          <mxGeometry x="760" y="560" width="100" height="40" as="geometry" />
        </mxCell>
        <mxCell id="Wu-X3HXLKaEp5Js9x2QL-30" value="제품코드" style="ellipse;whiteSpace=wrap;html=1;align=center;fontStyle=4;" vertex="1" parent="1">
          <mxGeometry x="620" y="520" width="100" height="40" as="geometry" />
        </mxCell>
        <mxCell id="Wu-X3HXLKaEp5Js9x2QL-32" value="제품명" style="ellipse;whiteSpace=wrap;html=1;align=center;" vertex="1" parent="1">
          <mxGeometry x="700" y="470" width="100" height="40" as="geometry" />
        </mxCell>
        <mxCell id="Wu-X3HXLKaEp5Js9x2QL-33" value="제품구분" style="ellipse;whiteSpace=wrap;html=1;align=center;" vertex="1" parent="1">
          <mxGeometry x="820" y="470" width="100" height="40" as="geometry" />
        </mxCell>
        <mxCell id="Wu-X3HXLKaEp5Js9x2QL-35" value="제품색생" style="ellipse;shape=doubleEllipse;margin=3;whiteSpace=wrap;html=1;align=center;" vertex="1" parent="1">
          <mxGeometry x="920" y="520" width="100" height="40" as="geometry" />
        </mxCell>
        <mxCell id="Wu-X3HXLKaEp5Js9x2QL-36" value="가격" style="ellipse;whiteSpace=wrap;html=1;align=center;" vertex="1" parent="1">
          <mxGeometry x="920" y="600" width="100" height="40" as="geometry" />
        </mxCell>
        <mxCell id="Wu-X3HXLKaEp5Js9x2QL-37" value="" style="endArrow=none;html=1;rounded=0;fontStyle=1" edge="1" parent="1" source="Wu-X3HXLKaEp5Js9x2QL-29" target="Wu-X3HXLKaEp5Js9x2QL-30">
          <mxGeometry relative="1" as="geometry">
            <mxPoint x="783" y="316" as="sourcePoint" />
            <mxPoint x="740" y="310" as="targetPoint" />
          </mxGeometry>
        </mxCell>
        <mxCell id="Wu-X3HXLKaEp5Js9x2QL-38" value="" style="endArrow=none;html=1;rounded=0;" edge="1" parent="1" source="Wu-X3HXLKaEp5Js9x2QL-29" target="Wu-X3HXLKaEp5Js9x2QL-32">
          <mxGeometry relative="1" as="geometry">
            <mxPoint x="793" y="516" as="sourcePoint" />
            <mxPoint x="750" y="510" as="targetPoint" />
          </mxGeometry>
        </mxCell>
        <mxCell id="Wu-X3HXLKaEp5Js9x2QL-39" value="" style="endArrow=none;html=1;rounded=0;" edge="1" parent="1" source="Wu-X3HXLKaEp5Js9x2QL-29" target="Wu-X3HXLKaEp5Js9x2QL-33">
          <mxGeometry relative="1" as="geometry">
            <mxPoint x="833" y="566" as="sourcePoint" />
            <mxPoint x="790" y="560" as="targetPoint" />
          </mxGeometry>
        </mxCell>
        <mxCell id="Wu-X3HXLKaEp5Js9x2QL-40" value="" style="endArrow=none;html=1;rounded=0;" edge="1" parent="1" source="Wu-X3HXLKaEp5Js9x2QL-35" target="Wu-X3HXLKaEp5Js9x2QL-29">
          <mxGeometry relative="1" as="geometry">
            <mxPoint x="943" y="716" as="sourcePoint" />
            <mxPoint x="900" y="710" as="targetPoint" />
          </mxGeometry>
        </mxCell>
        <mxCell id="Wu-X3HXLKaEp5Js9x2QL-41" value="" style="endArrow=none;html=1;rounded=0;" edge="1" parent="1" source="Wu-X3HXLKaEp5Js9x2QL-36" target="Wu-X3HXLKaEp5Js9x2QL-29">
          <mxGeometry relative="1" as="geometry">
            <mxPoint x="993" y="536" as="sourcePoint" />
            <mxPoint x="950" y="530" as="targetPoint" />
          </mxGeometry>
        </mxCell>
      </root>
    </mxGraphModel>
  </diagram>
</mxfile>
